Coordinates
version=1
nRows=10
nColumns=33
inDegrees=yes

Units are S.I. units (second, meters, Newtons, ...)
Angles are in degrees.

endheader
time	ground_thorax_rot_x	ground_thorax_rot_y	ground_thorax_rot_z	ground_thorax_tx	ground_thorax_ty	ground_thorax_tz	clav_prot_r	clav_elev_r	scapula_abduction_r	scapula_elevation_r	scapula_upward_rot_r	scapula_winging_r	shoulder_elv_r	plane_of_elev_r	axial_rot_r	elbow_flexion_r	pro_sup_r	wrist_flex_r	wrist_dev_r	clav_prot_l	clav_elev_l	scapula_abduction_l	scapula_elevation_l	scapula_upward_rot_l	scapula_winging_l	shoulder_elv_l	plane_of_elev_l	axial_rot_l	elbow_flexion_l	pro_sup_l	wrist_flex_l	wrist_dev_l
      7.03000000	    -38.00285836	    -12.42094531	     22.52353990	   -242.31126963	    833.36501684	      7.10794989	      6.23915624	    -45.00000000	     38.29723871	    -45.00000000	    -34.97226789	  -2623.15039177	  -2626.90826222	    146.53740969	   -115.48545268	    733.54038529	     22.22998644	     18.83881319	      3.87673537	     13.94576013	     37.13584347	    -35.21992951	    -45.00000000	    -45.00000000	   1525.09769538	  -2611.42219154	    134.60073917	   -179.99999979	     12.38433568	     39.20311390	      2.16388610	    -20.18841375
      7.04000000	    -38.27254030	    -11.94838676	     22.16577576	   -243.60775181	    833.57873849	      7.07381663	      6.60321432	    -45.00000000	     37.66013748	    -45.00000000	    -35.27622237	  -2623.24937078	  -2627.16478904	    146.16749645	   -115.37760077	    733.26451680	     23.03710910	     18.75716117	      3.92186685	     13.60658108	     37.20776840	    -35.53856037	    -45.00000000	    -45.00000000	   1524.56974900	  -2611.30271195	    135.17057454	   -179.99999979	     12.43616380	     39.94071339	      2.05992220	    -20.16433722
      7.05000000	    -38.18124085	    -12.37644046	     22.28053952	   -244.87663182	    833.78958440	      7.02624094	      6.43623863	    -45.00000000	     38.03357574	    -45.00000000	    -35.45169748	  -2623.20926276	  -2627.06875920	    146.49669668	   -115.64049375	    733.47998786	     23.97327527	     18.64481739	      3.60208025	     13.88998440	     37.10944454	    -35.20540229	    -45.00000000	    -45.00000000	   1524.96622534	  -2611.46116300	    134.94989452	   -179.99999979	     12.34173798	     40.86840697	      1.94924163	    -20.05310885
      7.06000000	    -38.31762756	    -12.07443500	     22.08265953	   -246.11082804	    833.99288234	      6.96584088	      6.48634517	    -45.00000000	     37.70858534	    -45.00000000	    -35.77807483	  -2623.32368800	  -2627.00488526	    146.32938174	   -115.56858083	    733.54053231	     24.82798026	     18.60079381	      3.51426897	     13.68873359	     37.13082332	    -35.20589719	    -45.00000000	    -45.00000000	   1524.96788152	  -2611.29807090	    134.81875526	   -179.99999979	     12.37786703	     41.61753058	      1.77890551	    -19.92695435
      7.07000000	    -38.28465606	    -12.21634746	     21.99732763	   -247.31340287	    834.18516898	      6.89307225	      6.34699350	    -45.00000000	     38.05587743	    -45.00000000	    -35.97456878	  -2623.33006451	  -2626.83871088	    146.53078025	   -115.70225422	    733.74650869	     25.64306295	     18.48740501	      3.23832647	     13.83768932	     37.10686123	    -35.06793079	    -45.00000000	    -45.00000000	   1525.10468987	  -2611.40867359	    134.94855170	   -179.99999979	     12.67891032	     42.34282475	      1.67349593	    -19.94192348
      7.08000000	    -38.37744521	    -12.16151384	     21.85888517	   -248.47662685	    834.36147969	      6.80928655	      6.53520366	    -45.00000000	     37.77815942	    -45.00000000	    -36.26144046	  -2623.35448168	  -2626.97736012	    146.42360955	   -115.69454433	    733.74961911	     26.70368865	     18.42263619	      3.21030054	     13.74018887	     37.07686004	    -35.06962235	    -45.00000000	    -45.00000000	   1525.11030860	  -2611.47876327	    135.05983330	   -179.99999979	     12.64942024	     43.23555290	      1.54613262	    -19.84108128
      7.09000000	    -38.44095297	    -12.13669223	     21.75880651	   -249.60219116	    834.51930208	      6.71530986	      6.50691175	    -45.00000000	     37.72654541	    -45.00000000	    -36.48448008	  -2623.37247745	  -2626.99405794	    146.43848462	   -115.81574483	    733.76466747	     27.73535812	     18.26386415	      2.98685591	     13.73649208	     37.06879351	    -34.95066647	    -45.00000000	    -45.00000000	   1525.08453529	  -2611.42917114	    135.04797620	   -179.99999979	     12.62842549	     44.10254833	      1.45428211	    -19.78029595
      7.10000000	    -38.50660659	    -12.03386081	     21.62819261	   -250.68461225	    834.65542824	      6.61271568	      6.56121041	    -45.00000000	     37.55429273	    -45.00000000	    -36.73871907	  -2623.42843490	  -2626.99109886	    146.38208307	   -115.84516589	    733.81619395	     28.75529850	     18.16801856	      2.88549808	     13.68690984	     37.07858167	    -34.89000445	    -45.00000000	    -45.00000000	   1525.08332951	  -2611.36679506	    135.00397793	   -179.99999979	     12.61231584	     44.91093312	      1.35773907	    -19.71137526
      7.11000000	    -38.52201067	    -12.02503105	     21.51386839	   -251.72396164	    834.76816306	      6.50282204	      6.56227756	    -45.00000000	     37.55566937	    -45.00000000	    -36.98898113	  -2623.47535124	  -2626.93678000	    146.38191262	   -115.91862453	    733.93534222	     29.78775685	     18.04108363	      2.70089299	     13.68936156	     37.05691190	    -34.80747064	    -45.00000000	    -45.00000000	   1525.08812017	  -2611.38946836	    135.04572768	   -179.99999979	     12.64989943	     45.70934903	      1.26901589	    -19.66541806
      7.12000000	    -38.56099599	    -11.99149609	     21.40828851	   -252.72112178	    834.85641386	      6.38661213	      6.61288039	    -45.00000000	     37.46502388	    -45.00000000	    -37.26455615	  -2623.50276894	  -2626.94309450	    146.36376740	   -115.94913343	    733.98627318	     30.88930276	     17.92892623	      2.60471614	     13.65563558	     37.05472990	    -34.76106408	    -45.00000000	    -45.00000000	   1525.11071013	  -2611.39337061	    135.06715849	   -179.99999979	     12.68553027	     46.51261333	      1.17512565	    -19.61231909
